<mxfile host="app.diagrams.net" agent="Mozilla/5.0 (Windows NT 10.0; Win64; x64) AppleWebKit/537.36 (KHTML, like Gecko) Chrome/136.0.0.0 Safari/537.36 Edg/136.0.0.0" version="27.0.5">
  <diagram name="Page-1" id="Z3jZgjGwPwFINDFo-9ip">
    <mxGraphModel dx="1182" dy="633" grid="1" gridSize="10" guides="1" tooltips="1" connect="1" arrows="1" fold="1" page="1" pageScale="1" pageWidth="1169" pageHeight="827" math="0" shadow="0">
      <root>
        <mxCell id="0" />
        <mxCell id="1" parent="0" />
        <mxCell id="N0zcuqBCQeUGABlgtL7C-1" value="" style="shape=image;imageAspect=0;aspect=fixed;verticalLabelPosition=bottom;verticalAlign=top;image=https://comercialsirsa.es/wp-content/uploads/2024/01/plc-millenium-slim-600x533.jpg;imageBorder=default;" vertex="1" parent="1">
          <mxGeometry x="472" y="260" width="225.11" height="200" as="geometry" />
        </mxCell>
        <mxCell id="N0zcuqBCQeUGABlgtL7C-2" value="" style="endArrow=none;html=1;rounded=0;strokeWidth=3;strokeColor=#FF0000;" edge="1" parent="1">
          <mxGeometry width="50" height="50" relative="1" as="geometry">
            <mxPoint x="370" y="120" as="sourcePoint" />
            <mxPoint x="670" y="120" as="targetPoint" />
          </mxGeometry>
        </mxCell>
        <mxCell id="N0zcuqBCQeUGABlgtL7C-3" value="Thermostat" style="rounded=0;whiteSpace=wrap;html=1;fillColor=#fff2cc;strokeColor=#d6b656;" vertex="1" parent="1">
          <mxGeometry x="610" y="150" width="120" height="60" as="geometry" />
        </mxCell>
        <mxCell id="N0zcuqBCQeUGABlgtL7C-4" value="" style="endArrow=none;html=1;rounded=0;strokeWidth=3;strokeColor=#FF0000;entryX=0.338;entryY=-0.015;entryDx=0;entryDy=0;entryPerimeter=0;" edge="1" parent="1" target="N0zcuqBCQeUGABlgtL7C-1">
          <mxGeometry width="50" height="50" relative="1" as="geometry">
            <mxPoint x="548" y="120" as="sourcePoint" />
            <mxPoint x="680" y="130" as="targetPoint" />
          </mxGeometry>
        </mxCell>
        <mxCell id="N0zcuqBCQeUGABlgtL7C-5" value="" style="endArrow=none;html=1;rounded=0;strokeWidth=3;strokeColor=#FF0000;" edge="1" parent="1">
          <mxGeometry width="50" height="50" relative="1" as="geometry">
            <mxPoint x="670" y="120" as="sourcePoint" />
            <mxPoint x="670" y="150" as="targetPoint" />
          </mxGeometry>
        </mxCell>
        <mxCell id="N0zcuqBCQeUGABlgtL7C-6" value="" style="endArrow=none;html=1;rounded=0;strokeWidth=3;strokeColor=#FF0000;entryX=0.88;entryY=-0.006;entryDx=0;entryDy=0;entryPerimeter=0;" edge="1" parent="1" target="N0zcuqBCQeUGABlgtL7C-1">
          <mxGeometry width="50" height="50" relative="1" as="geometry">
            <mxPoint x="669.8" y="210" as="sourcePoint" />
            <mxPoint x="669.8" y="240" as="targetPoint" />
          </mxGeometry>
        </mxCell>
        <mxCell id="N0zcuqBCQeUGABlgtL7C-7" value="L" style="text;html=1;align=center;verticalAlign=middle;whiteSpace=wrap;rounded=0;" vertex="1" parent="1">
          <mxGeometry x="546" y="235" width="20" height="20" as="geometry" />
        </mxCell>
        <mxCell id="N0zcuqBCQeUGABlgtL7C-8" value="I1" style="text;html=1;align=center;verticalAlign=middle;whiteSpace=wrap;rounded=0;" vertex="1" parent="1">
          <mxGeometry x="670" y="235" width="20" height="20" as="geometry" />
        </mxCell>
        <mxCell id="N0zcuqBCQeUGABlgtL7C-9" value="" style="endArrow=none;html=1;rounded=0;strokeWidth=3;strokeColor=#3333FF;" edge="1" parent="1">
          <mxGeometry width="50" height="50" relative="1" as="geometry">
            <mxPoint x="370" y="140" as="sourcePoint" />
            <mxPoint x="520" y="140" as="targetPoint" />
          </mxGeometry>
        </mxCell>
        <mxCell id="N0zcuqBCQeUGABlgtL7C-10" value="" style="endArrow=none;html=1;rounded=0;strokeWidth=3;strokeColor=#3333FF;" edge="1" parent="1">
          <mxGeometry width="50" height="50" relative="1" as="geometry">
            <mxPoint x="520" y="140" as="sourcePoint" />
            <mxPoint x="520" y="260" as="targetPoint" />
          </mxGeometry>
        </mxCell>
        <mxCell id="N0zcuqBCQeUGABlgtL7C-11" value="N" style="text;html=1;align=center;verticalAlign=middle;whiteSpace=wrap;rounded=0;" vertex="1" parent="1">
          <mxGeometry x="500" y="235" width="20" height="20" as="geometry" />
        </mxCell>
        <mxCell id="N0zcuqBCQeUGABlgtL7C-12" value="C1" style="text;html=1;align=center;verticalAlign=middle;whiteSpace=wrap;rounded=0;" vertex="1" parent="1">
          <mxGeometry x="480" y="460" width="20" height="20" as="geometry" />
        </mxCell>
        <mxCell id="N0zcuqBCQeUGABlgtL7C-13" value="O1" style="text;html=1;align=center;verticalAlign=middle;whiteSpace=wrap;rounded=0;" vertex="1" parent="1">
          <mxGeometry x="510" y="460" width="20" height="20" as="geometry" />
        </mxCell>
        <mxCell id="N0zcuqBCQeUGABlgtL7C-14" value="O2" style="text;html=1;align=center;verticalAlign=middle;whiteSpace=wrap;rounded=0;" vertex="1" parent="1">
          <mxGeometry x="540" y="460" width="20" height="20" as="geometry" />
        </mxCell>
        <mxCell id="N0zcuqBCQeUGABlgtL7C-15" value="C2" style="text;html=1;align=center;verticalAlign=middle;whiteSpace=wrap;rounded=0;" vertex="1" parent="1">
          <mxGeometry x="571" y="460" width="20" height="20" as="geometry" />
        </mxCell>
        <mxCell id="N0zcuqBCQeUGABlgtL7C-16" value="O3" style="text;html=1;align=center;verticalAlign=middle;whiteSpace=wrap;rounded=0;" vertex="1" parent="1">
          <mxGeometry x="600" y="460" width="20" height="20" as="geometry" />
        </mxCell>
        <mxCell id="N0zcuqBCQeUGABlgtL7C-17" value="O4" style="text;html=1;align=center;verticalAlign=middle;whiteSpace=wrap;rounded=0;" vertex="1" parent="1">
          <mxGeometry x="630" y="460" width="20" height="20" as="geometry" />
        </mxCell>
        <mxCell id="N0zcuqBCQeUGABlgtL7C-18" value="Contacteur(s) PAC" style="rounded=0;whiteSpace=wrap;html=1;fillColor=#fff2cc;strokeColor=#d6b656;" vertex="1" parent="1">
          <mxGeometry x="472" y="543" width="238" height="60" as="geometry" />
        </mxCell>
        <mxCell id="N0zcuqBCQeUGABlgtL7C-19" value="" style="endArrow=none;html=1;rounded=0;strokeWidth=3;strokeColor=#FF0000;" edge="1" parent="1">
          <mxGeometry width="50" height="50" relative="1" as="geometry">
            <mxPoint x="410" y="118" as="sourcePoint" />
            <mxPoint x="410" y="570" as="targetPoint" />
          </mxGeometry>
        </mxCell>
        <mxCell id="N0zcuqBCQeUGABlgtL7C-20" value="" style="endArrow=none;html=1;rounded=0;strokeWidth=3;strokeColor=#FF0000;" edge="1" parent="1">
          <mxGeometry width="50" height="50" relative="1" as="geometry">
            <mxPoint x="410" y="500" as="sourcePoint" />
            <mxPoint x="570" y="500" as="targetPoint" />
          </mxGeometry>
        </mxCell>
        <mxCell id="N0zcuqBCQeUGABlgtL7C-21" value="" style="endArrow=none;html=1;rounded=0;strokeWidth=3;strokeColor=#FF0000;" edge="1" parent="1">
          <mxGeometry width="50" height="50" relative="1" as="geometry">
            <mxPoint x="480" y="460" as="sourcePoint" />
            <mxPoint x="480" y="500" as="targetPoint" />
          </mxGeometry>
        </mxCell>
        <mxCell id="N0zcuqBCQeUGABlgtL7C-22" value="" style="endArrow=none;html=1;rounded=0;strokeWidth=3;strokeColor=#FF0000;" edge="1" parent="1">
          <mxGeometry width="50" height="50" relative="1" as="geometry">
            <mxPoint x="568" y="460" as="sourcePoint" />
            <mxPoint x="568" y="500" as="targetPoint" />
          </mxGeometry>
        </mxCell>
        <mxCell id="N0zcuqBCQeUGABlgtL7C-23" value="" style="endArrow=none;html=1;rounded=0;strokeWidth=3;strokeColor=#FF8000;entryX=0.16;entryY=0;entryDx=0;entryDy=0;entryPerimeter=0;" edge="1" parent="1" target="N0zcuqBCQeUGABlgtL7C-18">
          <mxGeometry width="50" height="50" relative="1" as="geometry">
            <mxPoint x="509.17" y="460" as="sourcePoint" />
            <mxPoint x="509.17" y="520" as="targetPoint" />
          </mxGeometry>
        </mxCell>
        <mxCell id="N0zcuqBCQeUGABlgtL7C-24" value="" style="endArrow=none;html=1;rounded=0;strokeWidth=3;strokeColor=#FF8000;entryX=0.16;entryY=0;entryDx=0;entryDy=0;entryPerimeter=0;dashed=1;" edge="1" parent="1">
          <mxGeometry width="50" height="50" relative="1" as="geometry">
            <mxPoint x="540.0000000000001" y="460" as="sourcePoint" />
            <mxPoint x="540.83" y="550" as="targetPoint" />
          </mxGeometry>
        </mxCell>
        <mxCell id="N0zcuqBCQeUGABlgtL7C-25" value="" style="endArrow=none;html=1;rounded=0;strokeWidth=3;strokeColor=#FF8000;entryX=0.16;entryY=0;entryDx=0;entryDy=0;entryPerimeter=0;dashed=1;" edge="1" parent="1">
          <mxGeometry width="50" height="50" relative="1" as="geometry">
            <mxPoint x="600.0000000000001" y="460" as="sourcePoint" />
            <mxPoint x="600.83" y="550" as="targetPoint" />
          </mxGeometry>
        </mxCell>
        <mxCell id="N0zcuqBCQeUGABlgtL7C-26" value="" style="endArrow=none;html=1;rounded=0;strokeWidth=3;strokeColor=#FF8000;entryX=0.16;entryY=0;entryDx=0;entryDy=0;entryPerimeter=0;dashed=1;" edge="1" parent="1">
          <mxGeometry width="50" height="50" relative="1" as="geometry">
            <mxPoint x="630.0000000000001" y="460" as="sourcePoint" />
            <mxPoint x="630.83" y="550" as="targetPoint" />
          </mxGeometry>
        </mxCell>
        <mxCell id="N0zcuqBCQeUGABlgtL7C-27" value="Options" style="text;html=1;align=center;verticalAlign=middle;whiteSpace=wrap;rounded=0;fontSize=7;" vertex="1" parent="1">
          <mxGeometry x="550" y="510" width="60" height="30" as="geometry" />
        </mxCell>
        <mxCell id="N0zcuqBCQeUGABlgtL7C-30" value="" style="endArrow=none;html=1;rounded=0;strokeWidth=3;strokeColor=#FF0000;" edge="1" parent="1">
          <mxGeometry width="50" height="50" relative="1" as="geometry">
            <mxPoint x="411" y="570" as="sourcePoint" />
            <mxPoint x="470" y="570" as="targetPoint" />
          </mxGeometry>
        </mxCell>
        <mxCell id="N0zcuqBCQeUGABlgtL7C-31" value="La ou les sortie(s) utilisée(s) dépendent du paramétrage du programme" style="text;html=1;align=center;verticalAlign=middle;whiteSpace=wrap;rounded=0;" vertex="1" parent="1">
          <mxGeometry x="400" y="610" width="310" height="30" as="geometry" />
        </mxCell>
      </root>
    </mxGraphModel>
  </diagram>
</mxfile>
